PathFileType	4	(X/Y/Z)	/Users/itak/Documents/Research/Walk-IL/dataset/trc/00207_00008.trc
DataRate	CameraRate	NumFrames	NumMarkers	Units	OrigDataRate	OrigDataStartFrame	OrigNumFrames
100.000000	100.000000	4	53	mm	100.000000	128	514
Frame#	Time	RPSI			LPSI			L3			STRN			T10			C7			CLAV			RBAK			LBAK			LSHO			LUPA			LAEL			LAOL			LWTS			LWPS			LFRA			LIFD			LHPS			LHTS			RSHO			RUPA			RAEL			RAOL			RWTS			RWPS			RFRA			RIFD			RHTS			RHPS			RBHD			LFHD			RFHD			LBHD			LHIP			RHIP			RASI			LASI			LKNE			LTHI			LANK			LTIP			LTOE			LMT1			LMT5			LHEE			RKNE			RTHI			RANK			RTIP			RTOE			RMT1			RMT5			RHEE			
		X1	Y1	Z1	X2	Y2	Z2	X3	Y3	Z3	X4	Y4	Z4	X5	Y5	Z5	X6	Y6	Z6	X7	Y7	Z7	X8	Y8	Z8	X9	Y9	Z9	X10	Y10	Z10	X11	Y11	Z11	X12	Y12	Z12	X13	Y13	Z13	X14	Y14	Z14	X15	Y15	Z15	X16	Y16	Z16	X17	Y17	Z17	X18	Y18	Z18	X19	Y19	Z19	X20	Y20	Z20	X21	Y21	Z21	X22	Y22	Z22	X23	Y23	Z23	X24	Y24	Z24	X25	Y25	Z25	X26	Y26	Z26	X27	Y27	Z27	X28	Y28	Z28	X29	Y29	Z29	X30	Y30	Z30	X31	Y31	Z31	X32	Y32	Z32	X33	Y33	Z33	X34	Y34	Z34	X35	Y35	Z35	X36	Y36	Z36	X37	Y37	Z37	X38	Y38	Z38	X39	Y39	Z39	X40	Y40	Z40	X41	Y41	Z41	X42	Y42	Z42	X43	Y43	Z43	X44	Y44	Z44	X45	Y45	Z45	X46	Y46	Z46	X47	Y47	Z47	X48	Y48	Z48	X49	Y49	Z49	X50	Y50	Z50	X51	Y51	Z51	X52	Y52	Z52	X53	Y53	Z53	

129	1.28	-1465.150390625	1025.518188476562	-632.8936157226562	-1449.68798828125	1026.553588867188	-755.7313842773438	-1454.062133789062	1066.296875	-693.3519897460938	-1176.27587890625	1252.352905273438	-666.0325317382812	-1470.802001953125	1226.94921875	-705.5089721679688	-1379.31982421875	1488.7861328125	-707.6071166992188	-1191.296264648438	1369.005615234375	-678.1742553710938	-1474.92431640625	1321.221313476562	-609.574951171875	-1374.687133789062	1463.996826171875	-808.5108642578125	-1289.706298828125	1443.876220703125	-876.1917114257812	-1324.009765625	1316.480834960938	-955.66162109375	-1330.204711914062	1099.3837890625	-978.8002319335938	-1389.841064453125	1088.909301757812	-914.272216796875	-1257.795532226562	853.8404541015625	-941.597900390625	-1331.974609375	846.2212524414062	-994.714599609375	-1327.554077148438	988.9000854492188	-995.2537231445312	-1274.912231445312	671.9100341796875	-922.3272094726562	-1321.29443359375	774.654541015625	-991.7767944335938	-1254.0283203125	774.887451171875	-964.3565063476562	-1344.3955078125	1463.493041992188	-520.0108642578125	-1380.579467773438	1400.155151367188	-456.0115661621094	-1437.491577148438	1117.795288085938	-407.358642578125	-1414.186889648438	1105.086303710938	-502.3885192871094	-1323.776245117188	880.2564086914062	-372.9368591308594	-1409.332641601562	872.804931640625	-350.4350280761719	-1426.78369140625	1046.057861328125	-379.9360961914062	-1319.773681640625	687.6439208984375	-376.8432922363281	-1309.79931640625	786.455810546875	-353.1052551269531	-1389.541870117188	788.1597290039062	-339.8128967285156	-1337.803466796875	1638.624755859375	-626.3563842773438	-1151.021606445312	1693.9267578125	-723.21435546875	-1173.878295898438	1687.81103515625	-595.9771728515625	-1321.5986328125	1652.2919921875	-762.3823852539062	-1341.947021484375	958.8532104492188	-864.6891479492188	-1324.684448242188	987.3504028320312	-492.8746643066406	-1236.998779296875	1007.143493652344	-542.6199340820312	-1218.868041992188	989.4386596679688	-800.546630859375	-1408.092529296875	473.1715393066406	-792.0853881835938	-1373.579956054688	610.4444580078125	-827.3521118164062	-1590.310546875	40.26983261108398	-761.656982421875	-1496.716918945312	261.8422241210938	-789.5089721679688	-1368.28173828125	38.81685638427734	-752.1907348632812	-1415.48974609375	41.01363754272461	-702.139404296875	-1486.061279296875	31.18926239013672	-810.1698608398438	-1636.223022460938	41.51616668701172	-688.865234375	-1127.497802734375	530.5072631835938	-490.3069152832031	-1213.598266601562	783.14697265625	-466.0184020996094	-988.9158935546875	41.7072639465332	-498.8383483886719	-1068.476684570312	425.6661682128906	-496.1549987792969	-809.40771484375	162.5491027832031	-474.589599609375	-842.0692138671875	133.5085144042969	-528.7123413085938	-906.2635498046875	91.85472869873047	-432.9816284179688	-1025.743041992188	31.86160087585449	-567.2008056640625	
130	1.29	-1459.144409179688	1023.780395507812	-631.7542114257812	-1443.75341796875	1025.071044921875	-754.5923461914062	-1448.0869140625	1064.674682617188	-692.107421875	-1170.244995117188	1250.717407226562	-664.4044799804688	-1464.883911132812	1225.411987304688	-704.0159301757812	-1373.3798828125	1487.313720703125	-705.92236328125	-1185.239135742188	1367.376831054688	-676.4147338867188	-1468.943237304688	1319.5732421875	-608.0025634765625	-1368.60009765625	1462.485717773438	-806.7731323242188	-1283.63427734375	1442.356323242188	-874.4551391601562	-1317.916137695312	1314.93994140625	-953.9216918945312	-1324.006469726562	1097.89013671875	-977.2109375	-1383.614990234375	1087.32861328125	-912.6777954101562	-1251.560791015625	852.3330078125	-940.2470092773438	-1325.759155273438	844.7575073242188	-993.3302001953125	-1321.355712890625	987.42431640625	-993.7508544921875	-1268.601806640625	670.387451171875	-921.1852416992188	-1315.08984375	773.1966552734375	-990.4837646484375	-1247.78076171875	773.4232788085938	-963.0965576171875	-1338.435791015625	1461.718139648438	-518.234619140625	-1374.6943359375	1398.2802734375	-454.3885192871094	-1432.101684570312	1116.023803710938	-406.3085327148438	-1408.413452148438	1103.327880859375	-501.2523803710938	-1319.367065429688	878.1091918945312	-371.5390319824219	-1405.0439453125	870.9683227539062	-349.4442138671875	-1421.720092773438	1044.281494140625	-378.9096374511719	-1316.033325195312	685.4888916015625	-375.5205078125	-1305.825439453125	784.2372436523438	-351.7121887207031	-1385.585815429688	786.246826171875	-338.7738952636719	-1331.986083984375	1636.90283203125	-624.5032958984375	-1145.1240234375	1692.47412109375	-721.005126953125	-1168.133056640625	1686.1552734375	-593.7963256835938	-1315.613159179688	1650.791137695312	-760.492431640625	-1336.0966796875	957.6923828125	-863.7608642578125	-1318.515380859375	985.40234375	-491.8594970703125	-1230.879516601562	1005.271728515625	-541.5189208984375	-1212.97314453125	988.0642700195312	-799.5267333984375	-1403.989990234375	472.3296508789062	-791.6258544921875	-1368.828247070312	609.4938354492188	-826.6901245117188	-1590.196411132812	40.53988647460938	-761.4392700195312	-1494.580322265625	261.6342163085938	-789.1864013671875	-1368.253662109375	38.78319549560547	-752.2023315429688	-1415.462890625	41.00633239746094	-702.14453125	-1486.096069335938	31.12581062316895	-810.1942749023438	-1636.101440429688	42.31560897827148	-688.6658935546875	-1121.050170898438	529.2020874023438	-489.3252258300781	-1207.592407226562	781.341552734375	-464.8021240234375	-978.5657958984375	39.4486083984375	-500.2233276367188	-1061.47900390625	424.720947265625	-495.0968322753906	-800.9717407226562	162.7601928710938	-472.6103820800781	-833.3426513671875	133.5437927246094	-526.9428100585938	-897.8792114257812	91.58733367919922	-431.5482482910156	-1016.427734375	31.26529884338379	-566.5007934570312	
131	1.3	-1452.968627929688	1022.100646972656	-630.4859008789062	-1437.6982421875	1023.637023925781	-753.3201904296875	-1441.960327148438	1063.102783203125	-690.7452392578125	-1164.0537109375	1249.136962890625	-662.6876220703125	-1458.803466796875	1223.9267578125	-702.4163818359375	-1367.2861328125	1485.900390625	-704.131591796875	-1179.021606445312	1365.80322265625	-674.5498657226562	-1462.80078125	1317.967529296875	-606.3304443359375	-1362.353881835938	1461.037231445312	-804.93408203125	-1277.402465820312	1440.90771484375	-872.6172485351562	-1311.650268554688	1313.458740234375	-952.0748901367188	-1317.642578125	1096.454345703125	-975.5000610351562	-1377.224365234375	1085.81005859375	-910.9667358398438	-1245.154907226562	850.8882446289062	-938.7493896484375	-1319.37841796875	843.3505249023438	-991.8075561523438	-1314.99462890625	986.0040893554688	-992.1176147460938	-1262.130981445312	668.9282836914062	-919.8865966796875	-1308.725341796875	771.7957153320312	-989.0447387695312	-1241.377563476562	772.0157470703125	-961.6897583007812	-1332.327392578125	1459.987426757812	-516.3507690429688	-1368.643188476562	1396.42822265625	-452.6629333496094	-1426.5517578125	1114.2822265625	-405.1890258789062	-1402.479858398438	1101.61181640625	-500.0437622070312	-1314.7529296875	876.0115356445312	-370.1070556640625	-1400.534912109375	869.1533813476562	-348.4237976074219	-1416.4794921875	1042.527099609375	-377.8216857910156	-1312.031494140625	683.3885498046875	-374.2040100097656	-1301.627685546875	782.0667724609375	-350.3028869628906	-1381.38818359375	784.3638916015625	-337.7208251953125	-1326.051513671875	1635.224731445312	-622.5494384765625	-1139.12255859375	1691.1044921875	-718.6919555664062	-1162.287719726562	1684.588012695312	-591.5078735351562	-1309.512939453125	1649.323608398438	-758.49365234375	-1330.1787109375	956.5556030273438	-862.7361450195312	-1312.099243164062	983.5501708984375	-490.7707214355469	-1224.555053710938	1003.464965820312	-540.3858642578125	-1206.970825195312	986.7385864257812	-798.4904174804688	-1399.774291992188	471.5353088378906	-791.1439208984375	-1363.97216796875	608.586669921875	-825.9873046875	-1590.063598632812	40.91498184204102	-761.206298828125	-1492.377807617188	261.5143737792969	-788.8441162109375	-1368.225830078125	38.74784088134766	-752.2227783203125	-1415.42138671875	41.01050567626953	-702.1612548828125	-1486.119506835938	31.06651306152344	-810.2037353515625	-1635.957397460938	43.31251907348633	-688.4501342773438	-1114.341430664062	527.8974609375	-488.2792663574219	-1201.260009765625	779.68701171875	-463.6243896484375	-969.7254028320312	37.18217468261719	-501.23583984375	-1054.487182617188	423.5652465820312	-493.9903564453125	-793.4390869140625	162.0141754150391	-470.7434692382812	-825.5635375976562	132.7305603027344	-525.2518310546875	-890.573486328125	90.68775177001953	-430.1999206542969	-1008.335632324219	30.38838958740234	-565.8959350585938	
132	1.31	-1446.603759765625	1020.494873046875	-629.0762939453125	-1431.51318359375	1022.266479492188	-751.9046630859375	-1435.669677734375	1061.596435546875	-689.2564086914062	-1157.694946289062	1247.631469726562	-660.8837280273438	-1452.547485351562	1222.506103515625	-700.7041625976562	-1361.029907226562	1484.5546875	-702.2263793945312	-1172.640869140625	1364.30419921875	-672.5813598632812	-1456.491577148438	1316.416381835938	-604.55615234375	-1355.949096679688	1459.667846679688	-802.9918823242188	-1271.007446289062	1439.54736328125	-870.6753540039062	-1305.21337890625	1312.056640625	-950.1218872070312	-1311.117309570312	1095.094116210938	-973.6671752929688	-1370.673706054688	1084.372680664062	-909.137939453125	-1238.578979492188	849.5244750976562	-937.1015014648438	-1312.834838867188	842.017822265625	-990.143798828125	-1308.472290039062	984.6575927734375	-990.3526000976562	-1255.506225585938	667.5511474609375	-918.4241943359375	-1302.2001953125	770.4691772460938	-987.4541015625	-1234.819946289062	770.6824340820312	-960.13232421875	-1326.0654296875	1458.315307617188	-514.356689453125	-1362.422119140625	1394.6123046875	-450.8333129882812	-1420.83984375	1112.586547851562	-403.99462890625	-1396.3916015625	1099.953247070312	-498.7589111328125	-1309.927124023438	873.9788208007812	-368.64111328125	-1395.79833984375	867.3746337890625	-347.3683471679688	-1411.058349609375	1040.809326171875	-376.6663513183594	-1307.765869140625	681.3568115234375	-372.8976440429688	-1297.198608398438	779.959716796875	-348.8789672851562	-1376.945922851562	782.5248413085938	-336.6518249511719	-1319.999755859375	1633.607543945312	-620.4918823242188	-1133.016479492188	1689.838134765625	-716.27197265625	-1156.342651367188	1683.12548828125	-589.1096801757812	-1303.29638671875	1647.908935546875	-756.3822021484375	-1324.1826171875	955.4614868164062	-861.6033935546875	-1305.420532226562	981.8095703125	-489.5998840332031	-1218.004760742188	1001.738952636719	-539.215576171875	-1200.846435546875	985.4799194335938	-797.4315185546875	-1395.461791992188	470.8186645507812	-790.6429443359375	-1359.027709960938	607.7551879882812	-825.2449340820312	-1589.907348632812	41.42458343505859	-760.9738159179688	-1490.117553710938	261.5139465332031	-788.48974609375	-1368.195190429688	38.70968627929688	-752.2550048828125	-1415.359985351562	41.03042602539062	-702.1962890625	-1486.128540039062	31.01268577575684	-810.196533203125	-1635.785766601562	44.53734588623047	-688.2306518554688	-1107.402587890625	526.5816650390625	-487.1642150878906	-1194.594482421875	778.188232421875	-462.4784851074219	-962.5223999023438	35.11458206176758	-501.6315307617188	-1047.522216796875	422.2005004882812	-492.8412170410156	-786.7774047851562	160.322509765625	-468.9960632324219	-818.6912231445312	131.0905303955078	-523.65087890625	-884.3081665039062	89.1663818359375	-428.9559020996094	-1001.433288574219	29.2495002746582	-565.402587890625	
